<svg width="1055" height="590" viewBox="0 0 1055 590" fill="none" xmlns="http://www.w3.org/2000/svg">
<path d="M1054.62 20.3023C1051.89 20.4879 1049.15 20.658 1045.98 20.8744C1044.43 26.6265 1042.61 31.1261 1034.83 25.3122C1031.2 22.5908 1024.83 21.3538 1020.42 22.4362C1016.56 23.3794 1012.78 27.9872 1010.65 31.8992C1006.71 39.1512 998.959 43.4188 988.599 41.0685C989.96 37.3884 990.315 32.8734 992.758 30.6622C997.382 26.4873 996.021 24.0133 991.305 20.1322C987.254 26.5028 983.404 32.5332 979.631 38.4708C976.26 40.0171 972.456 41.8262 968.59 43.4961C966.998 44.192 965.127 45.3207 963.627 45.0115C954.983 43.2797 951.009 50.9027 944.886 54.1035C944.098 54.5055 943.989 56.7321 944.051 58.0773C944.159 60.706 944.623 63.3191 945.103 67.3239C946.974 65.4839 949.046 63.783 950.7 61.742C955.2 56.1909 958.354 48.3668 968.08 52.5108C968.838 52.8355 970.09 52.449 970.941 52.0469C975.332 49.9286 979.677 47.6865 984.439 45.2743C986.14 48.6606 987.13 50.6089 987.779 51.9078C990.764 52.6036 993.454 52.7891 995.65 53.9179C997.088 54.6601 998.541 56.763 998.603 58.3093C998.65 59.3762 996.346 60.5513 995.062 61.6646C992.573 63.7985 990.284 66.257 987.516 67.9888C982.816 70.9267 977.822 73.3852 972.951 76.0448C970.369 77.4519 967.771 78.859 965.173 80.2815C967.477 81.2402 969.936 81.9206 972.023 83.204C974.435 84.6729 976.507 86.6676 978.857 87.4716C983.759 89.4354 988.661 91.3991 993.562 93.3629C993.346 94.5689 993.114 95.7596 992.897 96.9656C984.068 92.9145 977.033 106.645 967.431 97.8006C966.055 96.5327 962.452 97.4295 959.916 97.7078C956.39 98.0789 952.911 98.8057 948.922 99.4551C945.737 107.635 945.783 107.511 936.243 102.857C934.001 101.759 931.248 101.728 928.728 101.202C928.558 100.321 928.388 99.4242 928.202 98.5428C935.299 95.5122 942.397 92.4815 950.808 88.8787C944.546 85.0131 940.294 80.9928 935.624 87.6726C935.485 87.8737 935.269 88.1211 935.052 88.1829C925.929 90.5487 916.806 92.899 906.957 95.4348V106.228C906.694 106.259 906.431 106.29 906.153 106.336C904.158 100.367 902.503 94.2442 900.076 88.4612C896.968 81.0547 893.535 80.1115 887.211 84.9512C883.222 88.0128 880.887 86.5284 878.073 83.5596C876.727 82.1371 874.624 81.3949 872.877 80.3434C873.125 82.6009 872.8 85.1523 873.743 87.0696C875.614 90.8734 878.196 94.3215 881.428 99.3933C871.114 94.6153 864.651 85.7862 854.693 84.24L853.116 86.683C859.347 91.3682 865.563 96.0379 871.795 100.723C859.054 94.5689 847.812 83.6369 831.948 92.9145C832.365 93.4866 832.922 95.0792 833.85 95.3266C840.22 97.0893 846.854 98.0944 853.054 100.306C858.296 102.177 863.507 104.774 867.821 108.207C869.522 109.568 868.764 114.005 869.213 117.825C858.513 117.144 847.72 119.309 840.359 115.273C831.314 110.31 820.49 116.804 812.867 108.47C811.553 107.032 807.409 108.176 804.564 108.068C801.904 107.96 799.245 107.774 796.167 105.857C798.781 104.248 801.378 102.656 803.992 101.048C795.657 99.7025 794.281 85.6007 782.854 92.8062C782.545 87.7345 781.339 82.3999 782.344 81.936C787.277 79.694 792.812 77.6838 798.147 77.6684C802.724 77.6375 807.316 80.4362 811.924 81.9051C813.3 82.3381 814.815 83.0339 816.13 82.8019C820.583 82.0288 824.959 80.9155 828.283 80.1733C826.366 75.5191 823.691 69.5815 821.603 63.4274C821.279 62.4687 823.382 60.0875 824.866 59.237C832.443 54.923 832.644 52.8046 828.051 45.9392C826.35 43.4034 826.598 39.0429 827.201 35.7339C827.417 34.5433 831.267 34.0176 833.448 33.1672C835.133 32.5177 837.468 32.3013 838.38 31.0643C842.447 25.4823 846.313 27.1058 850.812 30.4303C852.637 31.7755 855.961 33.2909 857.399 32.5177C862.873 29.5953 865.718 32.5796 868.254 36.3834C873.604 44.393 880.748 49.6193 889.994 52.6654C893.21 53.7324 895.499 57.5207 899.72 59.036C899.983 61.2317 900.23 63.4274 900.648 66.9992C903.648 65.4994 907.884 64.216 907.823 63.2727C907.575 60.1648 906.601 55.5569 904.405 54.4282C893.52 48.7998 898.004 38.4399 896.009 30.152C895.576 28.3428 895.947 26.3327 895.947 26.2554C888.927 24.0133 883.376 22.2351 877.732 20.426C878.459 25.6369 879.186 30.8014 880.129 37.4503C870.682 28.7758 864.435 18.4932 851.585 13.1122C854.168 17.9829 855.76 21.0136 857.368 24.0443C856.858 24.4463 856.348 24.8483 855.837 25.2658C852.049 19.9776 848.261 14.7049 844.472 9.41669C843.638 9.71048 842.802 9.98881 841.968 10.2826C841.968 12.602 842.2 14.9523 841.89 17.2407C841.658 18.988 841.21 21.462 840.019 22.1424C838.891 22.7763 836.262 21.9877 835.009 20.9518C831.051 17.6892 827.433 14.0091 823.691 10.4991C823.103 11.0093 822.5 11.5196 821.913 12.0453C824.356 16.6068 826.799 21.1837 829.458 26.1162C823.119 29.317 816.578 32.193 819.129 40.4809C796.106 33.5692 773.329 26.7193 749.764 19.6374C754.032 29.719 764.33 28.4356 771.706 31.8838L770.747 35.0072C765.289 33.5847 759.274 33.1362 754.511 30.4612C749.904 27.879 746.641 25.807 741.306 28.915C739.064 30.2293 734.951 29.0541 731.921 28.2037C726.942 26.8121 722.056 24.9875 717.355 22.8691C715.871 22.2042 713.814 19.2045 714.17 18.6633C717.649 13.3442 712.299 10.1898 711.108 6.26233C709.005 -0.649426 702.727 2.33484 697.949 2.01013C697.393 2.59771 696.836 3.18528 696.279 3.77286C698.351 5.82938 700.516 7.80859 702.464 9.98881C704.026 11.7361 706.392 13.6534 706.531 15.6172C706.98 21.8331 714.417 32.3322 720.215 33.9403C724.267 35.0691 728.194 36.6926 732.292 37.4812C734.92 37.9915 738.415 38.378 740.41 37.1101C745.512 33.8475 749.3 35.4247 753.027 38.3162C749.3 42.955 745.744 47.3773 741.384 52.8046C729.493 42.8158 715.175 49.8822 700.934 53.052C676.812 58.402 652.721 63.9686 628.631 69.4578C624.827 70.3237 621.905 70.9267 618.781 66.659C616.972 64.185 611.514 63.8139 607.664 63.6748C606.148 63.6129 604.509 66.7518 602.917 68.4372C604.958 69.164 606.968 70.169 609.071 70.5092C610.509 70.7412 612.101 70.0453 615.086 69.5042C607.71 75.6737 580.681 80.6681 576.414 77.4983C569.095 81.9309 562.183 80.6269 555.679 73.5863C552.4 70.0299 540.804 72.4266 535.763 78.4106C535.33 74.6841 534.99 71.638 534.588 68.1434C528.341 69.4114 528.681 73.5863 529.284 77.9467C529.856 82.0443 530.366 86.1419 530.908 90.224C530.134 90.4559 529.361 90.6724 528.588 90.9043C526.346 86.7913 524.181 82.6473 521.862 78.5961C518.275 72.3183 509.26 68.0507 502.24 68.9166C500.632 69.1176 498.9 68.1898 497.215 68.1434C495.591 68.0971 493.612 68.0816 492.452 68.9475C491.756 69.4732 491.988 71.8235 492.452 73.1378C493.55 76.2149 495.019 79.1682 496.442 82.3845C499.441 83.3122 503.23 84.4719 507.219 85.6934C498.715 100.924 484.675 100.769 473.279 102.455C465.532 94.94 458.79 88.3994 452.806 82.6009C453.61 78.8281 453.518 75.1789 455.172 72.7049C456.734 70.3546 460.043 69.0248 462.764 67.6332C464.249 66.8755 466.568 67.4322 467.743 66.4735C469.119 65.3602 469.645 63.2264 470.542 61.5409C469.073 60.8297 467.666 59.67 466.135 59.469C460.29 58.6958 454.631 57.9536 453.858 51.0109C457.105 47.1608 460.29 43.8982 462.78 40.1717C463.553 39.012 462.996 36.337 462.177 34.8371C458.837 28.714 462.517 19.2045 469.32 17.3026C474.655 15.8027 480.067 14.5193 485.417 13.0659C490.519 11.6742 495.591 8.98374 500.663 9.03013C506.77 9.07652 505.503 5.4892 506.941 0C494.54 3.44815 483.623 6.38603 472.753 9.55585C469.336 10.5455 465.764 11.6278 462.81 13.5143C454.167 19.0189 451.987 27.5233 455.651 39.2594C444.797 50.5471 444.472 55.4332 453.765 62.6079C451.353 67.4012 448.477 71.9318 446.714 76.8489C444.379 83.3741 446.482 88.4922 452.466 92.7134C456.749 95.7441 459.919 100.352 464.295 105.006C452.126 107.65 440.622 110.124 429.133 112.629C391.42 120.855 353.722 129.19 315.963 137.215C311.015 138.266 308.711 140.168 309.066 145.317C309.36 149.399 309.53 153.605 308.927 157.625C308.572 160.006 306.654 162.187 305.324 164.398C302.015 169.918 297.222 175.082 295.892 181.02C295.166 184.283 300.206 188.86 302.649 192.833C303.639 192.926 304.629 193.004 305.603 193.096C302.665 196.885 299.279 200.426 296.913 204.554C294.794 208.265 293.31 212.517 292.506 216.708C291.779 220.434 292.351 224.408 292.351 228.305C278.93 226.526 273.286 217.836 268.091 208.482C265.245 203.348 261.086 202.498 255.025 203.487C248.701 204.523 242.175 205.807 236.423 198.137C232.805 193.328 223.605 191.705 216.616 190.715C211.498 189.988 205.9 192.617 200.504 193.761C199.994 193.869 199.282 193.869 199.05 194.21C193.329 202.389 182.645 200.364 175.362 205.776C169.996 209.765 163.023 211.543 157.348 215.208C147.73 221.424 147.421 227.794 155.106 235.031C149.632 238.633 143.988 242.19 138.545 245.994C127.691 253.586 127.938 260.374 139.148 267.332C132.871 279.053 135.004 282.485 148.828 283.707C153.096 284.078 157.456 283.49 160.394 289.01C161.739 291.546 168.032 291.655 172.161 292.443C173.769 292.752 175.918 291.175 177.264 291.747C179.49 292.691 182.273 294.283 183.077 296.278C186.015 303.669 199.019 303.746 196.437 315.034C195.772 317.941 196.344 321.126 196.344 324.543C194.551 324.806 193.066 325.332 191.628 325.208C177.805 324.002 178.763 324.358 178.269 337.671C178.021 344.567 178.222 351.495 178.222 358.205C171.713 362.72 158.353 354.726 159.327 369.509C145.473 369.509 131.912 369.787 118.351 369.447C95.1729 368.859 71.9946 368.009 48.8317 366.973C43.3734 366.725 41.4406 368.596 41.5179 373.931C41.7034 387.986 41.5798 402.042 41.5798 416.406H9.32484C9.32484 405.722 9.18573 395.779 9.37128 385.852C9.47951 379.791 17.1954 370.622 23.4113 368.735C28.3284 367.236 33.2145 365.117 38.2553 364.622C44.4558 364.019 50.7799 365.009 57.0577 364.916C61.3563 364.854 65.8405 364.731 69.8607 363.447C72.0719 362.736 74.685 359.721 74.9324 357.525C75.118 355.824 71.9018 353.721 70.1545 351.85C69.5206 351.17 68.7165 350.629 68.0052 350.041C68.5464 349.284 68.7629 348.634 69.0876 348.557C74.1748 347.567 80.2052 347.15 80.267 340.3C80.3289 333.527 74.2676 332.275 69.1649 330.388C59.0833 326.662 49.1719 322.209 38.1935 327.76C37.1111 328.301 34.6216 326.105 32.194 324.884C33.8021 323.368 34.4206 322.255 35.2556 322.069C44.8423 319.92 54.5219 318.111 64.0623 315.761C67.5104 314.91 71.8863 313.627 73.4944 311.076C74.5768 309.359 72.412 304.164 70.2164 302.107C65.8714 298.041 61.3718 293.232 54.1662 294.5C53.2694 294.654 52.0943 293.448 51.1047 292.768C46.0175 289.242 41.2241 283.212 35.8431 282.624C21.8959 281.125 11.6752 272.651 0.000976562 266.915V274.615C4.99538 278.171 9.97428 281.743 16.0974 286.104C16.3448 286.011 18.3859 285.16 20.5816 284.263C22.2516 286.165 23.7205 287.851 25.7152 290.108C34.0495 281.82 38.8893 291.979 43.1879 295.056C46.5278 297.453 49.8212 299.309 53.5786 300.808C58.3566 302.695 63.0572 304.751 67.8042 306.731C67.5413 307.519 67.2631 308.292 67.0002 309.081C63.5675 309.081 59.1297 307.705 56.9031 309.344C50.2078 314.214 42.5075 313.952 35.1318 315.622C32.0703 316.317 29.3953 318.559 26.3801 319.642C24.4473 320.338 22.0506 320.755 20.1178 320.276C15.5718 319.162 11.165 317.431 6.69629 315.946C6.23241 316.766 5.7685 317.57 5.30462 318.389C6.46431 319.549 7.45393 320.972 8.79917 321.837C16.5768 326.863 27.8181 325.023 33.6165 334.486C34.2814 335.568 39.1366 335.213 41.3014 334.099C49.0636 330.079 68.1598 333.45 74.3603 340.594C68.0825 341.939 61.8666 343.269 53.0065 345.17C58.5112 350.196 62.4542 353.783 68.2527 359.087C63.1346 359.087 60.0111 359.195 56.9031 359.056C53.8879 358.932 50.6872 357.757 47.9349 358.468C42.925 359.783 40.049 359.164 40.7602 351.928C33.7557 355.36 28.0191 358.174 22.267 360.989C21.834 360.123 21.4012 359.257 20.9837 358.391C29.6582 353.907 38.3172 349.438 46.9917 344.954C41.5952 344.274 36.5544 344.707 31.8693 346.222C27.9263 347.505 23.6277 352.453 20.8135 351.572C13.0668 349.16 10.098 354.433 6.12408 358.314C3.89748 357.015 1.96466 355.886 0.0318375 354.757V373.25C4.74791 387.646 5.25818 402.026 0.0318375 416.422V421.045C12.1235 421.463 24.2153 421.617 36.2915 422.39C43.93 422.87 46.8989 420.303 46.5587 412.371C46.002 399.413 46.4041 386.409 46.4041 372.23C85.1842 373.575 121.815 374.843 160.1 376.157C158.322 387.445 156.095 397.341 155.369 407.33C154.472 419.607 154.827 431.977 154.673 444.301C154.518 455.733 148.72 461.732 137.277 462.299C128.618 462.732 121.954 459.64 115.321 453.609C110.496 449.218 102.935 446.759 96.2399 445.785C91.7866 445.136 88.323 445.012 84.8285 441.61C74.8551 431.931 60.3822 433.307 52.2334 444.177C47.9503 449.898 37.6059 451.646 31.1426 448.429C28.3902 447.069 24.3081 446.033 21.7413 447.069C14.2574 450.115 7.23738 454.29 0.0318375 458.032V467.278C77.2054 470.541 154.379 473.973 231.568 477.02C334.997 481.102 438.441 484.859 541.886 488.771C601.587 491.029 661.288 493.162 720.973 495.606C801.239 498.899 881.49 502.548 961.771 505.687C969.023 505.965 971.343 507.713 971.343 515.166C971.343 540.818 972.147 566.47 972.642 592.138H977.28C977.528 589.602 977.992 587.067 977.976 584.546C977.698 534.71 977.342 484.859 977.017 435.023C977.002 432.085 977.017 429.148 977.017 425.792C1000.04 426.844 1021.7 427.833 1042.32 428.776C1041.7 421.354 1040.89 415.231 1040.72 409.077C1039.75 374.673 1038.91 340.253 1038.06 305.834C1038 303.329 1038.06 300.839 1038.06 297.469C1044.14 298.798 1049.38 299.834 1054.62 300.886C1054.62 298.829 1054.62 296.773 1054.62 294.716C1039.56 290.479 1024.73 283.892 1008.68 290.835C1006.86 291.624 1004.68 291.655 1002.64 291.948C993.129 293.355 983.496 294.206 974.11 296.231C958.431 299.633 942.907 303.808 927.414 307.627C925.604 279.841 923.842 252.905 922.11 226.171C937.897 229.294 954.318 235.031 973.183 232.557C975.981 236.531 980.682 236.577 986.898 234.845C992.418 233.299 998.696 234.443 1004.63 234.459C1005.07 234.459 1005.58 234.907 1005.9 235.263C1010.63 240.52 1016.29 239.453 1022.26 238.03C1026.4 237.041 1031.71 235.139 1034.8 236.793C1040.61 239.917 1044.82 241.092 1049.58 235.665C1050.48 234.629 1052.91 234.923 1054.62 234.613C1054.62 232.557 1054.62 230.5 1054.62 228.444C1013.91 232.943 973.832 225.444 933.398 222.135C935.655 220.62 937.959 219.599 940.356 219.321C959.251 217.171 978.131 214.945 997.057 213.151C1016.23 211.311 1035.43 209.95 1054.62 208.389C1054.62 206.332 1054.62 204.276 1054.62 202.219C1050.77 202.528 1046.92 202.807 1043.07 203.147C1036.53 203.719 1028.51 206.966 1029.16 195.06C1029.2 194.117 1027.8 192.911 1026.82 192.107C1021.16 187.406 1015.13 184.113 1007.25 184.669C1003.4 184.932 999.438 183.401 995.495 182.86C992.495 182.443 989.449 182.133 986.419 182.133C983.79 182.133 981.177 182.628 978.548 182.906C979.909 180.448 981.563 179.474 983.295 178.685C1001.32 170.506 1019.52 162.651 1037.32 154.007C1043.35 151.069 1048.61 149.492 1054.62 152.894V146.724C1049.92 143.353 1045.41 143.925 1040.26 146.291C1018.09 156.527 995.743 166.408 973.477 176.412C969.549 178.175 966.178 180.185 967.06 185.551C967.261 186.788 965.993 189.091 964.818 189.617C957.72 192.756 950.345 195.307 943.263 198.477C934.526 202.405 925.976 206.765 916.188 211.497C917.116 197.534 917.796 184.515 919.048 171.541C919.234 169.609 921.801 167.243 923.842 166.284C936.861 160.192 949.772 153.729 963.209 148.703C993.516 137.354 1024.13 126.777 1054.62 115.892C1054.62 107.155 1054.62 98.4191 1054.62 89.6828C1044.16 92.2341 1033.66 94.6926 1023.2 97.3522C1011.33 100.367 1011.13 100.445 1011.5 112.815C1011.64 117.515 1010.43 119.541 1005.55 120.531C991.954 123.252 978.224 125.788 965.049 129.947C948.876 135.05 934.959 126.051 918.291 126.561C920.193 122.185 921.198 119.912 922.156 117.624C924.692 111.624 926.857 106.753 935.392 111.392C941.562 114.748 948.736 115.737 954.396 107.805C956.035 105.501 962.421 106.29 966.658 106.166C971.064 106.027 975.518 106.939 979.893 106.568C983.543 106.259 987.223 105.053 990.671 103.676C994.011 102.331 999.005 100.831 999.732 98.3727C1000.63 95.3266 998.897 90.1312 996.438 87.8118C992.867 84.4564 987.656 82.8329 984.316 81.1011C988.089 77.0808 991.97 72.8131 996.005 68.7156C996.84 67.8651 998.294 67.6177 999.423 67.0147C1006.23 63.381 1007.49 59.1442 1004.77 51.8614C1004.09 50.0523 1004.9 45.8155 1005.7 45.6454C1013.97 43.7745 1017.85 37.8678 1019.74 30.4458C1031.48 31.5591 1042.22 38.4399 1053.14 31.0643C1053.48 30.8323 1054.14 31.0952 1054.65 31.1261V20.3333L1054.62 20.3023ZM538.082 481.04L513.574 480.189C512.213 480.545 510.853 481.225 509.507 481.179C480.345 480.143 451.183 478.937 422.02 477.963C400.094 477.236 378.122 477.545 356.258 475.999C329.817 474.144 303.423 472.35 276.889 472.783C265.153 472.984 253.386 471.407 241.634 470.649C250.494 466.551 259.633 464.047 268.616 461.062C282.27 456.516 295.753 451.445 309.438 446.991C312.267 446.079 315.638 446.852 318.267 446.852C318.406 447.208 317.292 445.677 317.664 445.028C319.024 442.724 331.286 441.177 333.033 443.188C339.357 450.47 348.156 449.775 356.227 449.775C361.701 449.775 364.778 451.321 367.005 455.882C368.242 458.418 369.37 461.186 371.288 463.15C372.71 464.603 375.323 464.897 378.509 466.149C377.38 459.671 376.622 455.341 375.865 451.027C379.498 458.248 380.395 467.819 393.415 463.351C393.105 458.619 392.75 453.192 392.394 447.749C392.641 447.703 392.889 447.672 393.121 447.625C394.744 453.795 396.383 459.98 398.486 467.943C400.218 464.603 400.868 463.335 401.331 462.423C404.64 463.242 407.671 463.985 409.898 464.526C411.908 457.444 413.748 450.981 415.572 444.533L417.598 445.136C416.237 449.728 414.475 454.243 413.686 458.928C413.361 460.892 415.093 463.196 415.897 465.361C417.892 463.753 421.108 462.485 421.665 460.49C425.731 446.141 425.546 446.048 440.946 445.801C444.224 445.754 448.971 444.827 450.549 446.558C459.192 456.068 471.624 454.305 482.201 457.429C486.623 458.727 489.963 459.593 492.638 463.258C497.168 469.458 500.601 477.298 510.621 475.829C511.239 475.736 512.059 477.081 512.785 477.746C512.739 475.628 512.383 473.448 512.739 471.391C512.986 469.876 515.012 468.314 514.749 467.108C513.481 461.495 516.898 460.351 521.12 459.671C522.821 459.176 524.491 458.341 526.207 458.233C533.366 457.769 541.221 459.81 547.499 450.95C553.668 457.475 560.101 463.66 565.729 470.525C568.605 474.035 571.945 475.613 575.192 473.587C577.202 472.334 578.563 468.036 578.177 465.407C577.202 458.82 575.053 452.403 573.383 445.924L574.326 445.507C575.826 448.337 577.326 451.182 578.826 454.011C579.259 453.81 579.692 453.609 580.125 453.424C580.295 450.146 580.465 446.868 580.635 443.59C581.315 443.667 582.011 443.729 582.692 443.806C582.336 448.538 581.98 453.285 581.625 458.016C582.46 458.325 583.31 458.65 584.145 458.959C589.279 451.723 594.397 444.486 599.53 437.25C599.87 440.543 599.036 443.419 597.52 445.878C593.608 452.171 589.139 458.109 585.428 464.51C583.728 467.448 583.217 471.762 588.335 471.948C596.098 472.242 598.603 477.499 601.881 483.282C589.851 483.282 578.733 483.576 567.662 483.189C557.781 482.849 547.916 481.782 538.051 481.04H538.082ZM633.95 484.086C621.41 488.771 607.54 485.354 604.803 476.896C617.173 471.469 623.837 472.675 632.852 482.045C632.388 479.942 631.94 477.855 631.383 475.303H638.047C637.877 473.401 637.738 471.809 637.63 470.525C656.108 469.226 674.106 468.453 687.744 455.217C691.161 457.985 693.775 460.985 697.068 462.608C711.804 469.907 727.792 468.005 743.255 467.062C751.604 466.551 759.382 463.397 768.335 466.088C773.329 467.587 776.607 468.067 777.442 473.788C778.293 479.555 780.875 484.302 789.812 484.21C786.132 477.143 782.808 470.773 779.483 464.402C779.947 464.155 780.411 463.907 780.891 463.66C784.509 469.304 788.112 474.948 792.008 481.024C794.034 474.979 795.781 469.721 797.544 464.479C798.379 464.51 799.214 464.541 800.033 464.588C794.76 474.499 797.374 482.014 805.816 487.751C805.244 482.215 804.672 476.679 804.053 470.649C811.398 472.35 812.001 480.87 819.176 480.499C822.701 480.313 826.644 482.169 829.737 481.148C834.329 479.617 833.757 475.18 834.128 470.664C834.53 465.639 837.282 458.387 841.148 456.532C850.101 452.233 860.353 449.574 870.712 457.552C869.321 453.888 868.517 451.785 867.187 448.244C876.882 448.847 885.804 448.955 894.556 450.223C896.906 450.563 898.731 454.398 900.988 456.81C900.648 455.217 900.308 453.64 900.076 452.62C917.595 451.785 934.913 450.965 953.205 450.099V498.93C944.515 498.435 935.346 497.925 926.347 497.43C925.898 495.234 925.496 493.24 925.094 491.261C924.77 491.338 924.445 491.4 924.105 491.477C924.321 493.518 924.538 495.559 924.847 498.451C915.801 497.894 907.405 497.507 899.055 496.843C884.258 495.683 869.491 493.889 854.662 493.224C842.045 492.668 829.366 493.317 816.733 493.487C811.877 493.549 807.115 493.642 805.631 487.519V491.477C802.492 492.018 800.033 492.853 797.621 492.776C782.962 492.297 768.319 491.601 753.676 490.998C724.839 489.807 696.001 488.74 667.163 487.349C661.071 487.055 655.041 485.539 648.732 484.55C648.036 486.792 641.326 487.132 633.965 484.117L633.95 484.086ZM886.5 414.041C884.66 410.376 883.546 406.68 881.289 403.897C874.965 396.15 866.213 395.424 856.719 395.084C850.085 394.852 843.993 389.239 836.556 391.388C836.324 391.45 835.798 390.754 835.504 390.337C829.18 381.461 819.547 386.78 811.599 384.894C807.347 383.889 802.894 383.487 798.533 383.394C793.848 383.286 788.514 382.528 784.602 384.399C776.901 388.095 770.268 393.955 762.676 397.898C755.501 401.609 755.083 408.211 755.13 414.18C755.192 420.504 761.671 420.751 766.572 422.329C773.407 424.54 779.963 427.57 786.643 430.245C786.333 431.019 786.009 431.792 785.699 432.549C784.462 432.441 783.21 432.441 782.004 432.194C773.778 430.462 768.706 435.595 762.212 439.368C754.666 443.76 748.234 446.527 751.929 457.877H723.602C720.741 460.923 715.932 459.872 709.299 457.645C703.732 455.79 697.455 456.81 694.192 449.883C695.646 447.177 697.331 441.688 698.8 441.75C708.773 442.121 708.325 432.549 713.18 427.941C704.444 427.972 699.789 438.054 688.564 435.008C680.198 432.735 672.498 430.214 665.184 426.658C663.762 418.092 670.457 415.262 674.786 410.948C679.796 405.969 687.358 409.989 693.218 404.809C699.264 399.49 709.902 402.212 716.303 395.439C716.891 394.821 718.716 395.161 719.906 395.377C724.839 396.305 729.725 397.79 734.688 398.114C736.42 398.222 738.492 395.764 740.1 394.156C740.858 393.383 740.533 391.141 741.26 390.816C747.538 388.033 746.084 385.651 741.538 382.296C740.116 381.245 739.281 377.394 740.116 375.91C741.09 374.163 744.121 373.405 746.394 372.616C747.708 372.168 749.331 372.74 750.754 372.477C758.346 371.101 765.907 369.601 773.499 368.148C773.716 368.905 773.932 369.648 774.149 370.405C775.37 368.241 776.592 366.076 777.04 365.287C783.859 363.957 789.441 362.875 794.822 361.824C793.261 357.649 791.189 354.247 791.869 353.551C794.405 350.984 797.729 349.098 800.976 347.397C803.62 346.021 807.811 346.098 809.187 344.088C812.434 339.372 816.408 337.486 821.634 335.213C830.757 331.239 838.643 334.47 847.024 335.568C847.735 335.661 848.817 337.022 848.817 337.779C848.709 344.506 856.935 345.557 858.188 351.495C858.358 352.283 861.729 352.716 863.615 352.763C865.301 352.793 867.141 351.448 868.687 351.773C876.387 353.427 885.077 350.459 891.788 356.814C894.587 359.458 898.993 361.174 900.416 364.329C902.473 368.89 903.663 367.978 906.957 365.952C908.797 364.823 912.832 364.607 914.193 365.828C918.584 369.802 922.512 373.529 929.099 370.931C929.872 370.622 931.527 371.596 932.331 372.415C935.81 375.956 939.119 379.652 942.366 383.162C936.727 390.718 931.052 394.98 925.342 395.949C924.244 399.97 923.223 403.696 922.249 407.237C925.914 408.613 929.254 410.654 932.795 411.041C940.371 411.891 948.412 413.453 955.602 411.814C963.581 410.005 966.163 414.535 971.265 418.927C953.994 419.994 953.916 420.086 952.88 438.904C946.324 440.559 939.706 442.275 933.057 443.868C932.114 444.1 931.032 443.868 930.042 443.682C922.852 442.368 915.832 442.322 908.441 443.435C901.004 444.548 893.628 439.446 885.448 441.811C882.758 442.584 878.892 439.678 875.691 438.209C874.068 437.466 872.676 436.183 871.192 435.162C872.568 433.632 873.944 432.101 875.305 430.586C872.274 429.194 869.182 427.771 864.419 425.576C873.48 423.426 880.176 421.818 888.448 419.855C888.68 415.108 894.293 418.123 897.803 416.546C904.173 413.669 909.199 407.794 916.497 401.748C902.658 400.588 895.932 411.397 886.546 414.056L886.5 414.041ZM313.767 276.687C313.489 274.893 312.978 273.192 312.994 271.491C313.319 230.655 313.767 189.834 313.968 148.997C313.999 144.312 316.102 142.998 320.199 142.116C343.857 137.091 367.453 131.772 391.08 126.623C483.592 106.506 576.12 86.4356 668.632 66.3034C686.909 62.3295 705.139 58.1856 724.916 53.7633C724.916 59.5617 724.545 64.3706 725.009 69.1021C725.581 74.7769 723.54 77.3282 717.834 78.4879C647.511 92.8681 577.249 107.511 506.941 121.969C453.765 132.901 400.574 143.755 347.336 154.455C341.553 155.615 339.28 157.857 339.435 164.119C339.806 178.747 338.816 193.406 339.265 208.018C339.497 215.672 337.564 219.676 329.353 219.305C322.998 219.027 321.081 222.382 321.467 228.475C321.916 235.634 321.498 242.855 321.421 250.045C321.313 259.987 321.405 260.281 331.162 259.044C356.428 255.843 381.678 252.411 406.929 249.071C422.654 246.983 438.395 244.911 454.615 242.762V258.627C407.439 264.672 360.819 270.641 313.751 276.656L313.767 276.687ZM569.054 453.949C558.261 444.053 532.547 428.622 526.3 431.421C532.268 435.905 537.634 439.94 543.216 444.146C534.325 442.554 525.202 442.105 517.146 438.935C513.775 437.606 507.497 435.92 507.899 427.277C508.239 419.669 514.223 421.957 516.28 418.401C517.965 415.479 519.341 410.299 525.449 413.237C528.635 414.783 532.701 414.504 534.325 414.752C539.396 413.932 542.705 413.716 545.813 412.804C548.999 411.86 551.875 409.665 555.091 409.062C561.632 407.809 568.296 407.253 574.929 406.479C575.254 406.448 575.749 407.082 576.027 407.485C581.779 416.02 591.134 409.711 597.984 413.716C594.118 404.655 595.448 402.83 605.236 402.768C606.937 402.768 608.607 401.686 610.339 401.408C613.694 400.882 617.096 400.619 620.467 400.155C622.446 399.877 624.41 399.444 626.373 399.073C624.966 397.65 623.667 395.145 622.121 394.975C611.591 393.847 601.664 396.274 592.387 401.315C591.768 401.655 591.335 402.444 590.979 403.109C588.304 408.041 585.227 406.464 581.424 404.268C578.285 402.459 574.079 400.202 571.033 400.944C563.534 402.784 554.21 398.377 548.535 406.928C548.241 407.361 547.081 407.33 546.324 407.314C539.443 407.237 532.454 406.387 525.697 407.253C521.058 407.84 516.636 410.608 512.26 412.711C510.76 413.438 509.894 415.417 508.425 416.283C499.333 421.602 498.498 431.9 506.956 438.425C509.925 440.714 513.62 442.043 516.759 444.146C518.151 445.074 519.017 446.821 520.13 448.182C518.12 449.45 514.888 452.233 514.285 451.754C505.441 444.626 495.699 453.424 485.695 449.543C478.969 446.929 469.583 446.326 461.372 445.089C459.548 444.811 456.564 439.755 457.198 438.069C459.022 433.292 461.589 428.081 465.424 424.942C473.665 418.185 482.943 412.695 491.648 406.495C493.55 405.134 495.668 403.186 496.256 401.114C497.076 398.145 495.359 392.919 496.844 391.976C501.884 388.775 507.899 385.033 513.45 385.172C523.254 385.435 533.273 388.991 538.546 376.946C541.422 370.374 545.782 371.967 550.607 373.962C552.802 374.874 555.153 375.523 557.503 375.956C560.766 376.544 564.075 376.992 567.384 377.132C569.842 377.24 572.332 376.76 574.79 376.544L574.527 374.008C571.821 372.895 569.1 371.766 565.714 370.374C567.26 367.344 567.909 363.617 570.043 362.303C578.563 357.046 587.918 361.777 596.809 361.777C601.726 361.777 606.999 367.715 611.452 371.72C615.24 375.121 618.627 375.724 623.281 374.024C624.379 373.622 628.105 376.312 627.981 377.24C626.945 385.218 632.203 388.388 637.769 391.976C642.192 394.821 645.964 398.702 650.201 402.274C640.815 409.51 635.682 409.371 631.136 402.366C629.775 403.851 628.492 405.242 626.837 407.036C628.986 408.041 631.182 408.35 632.002 409.572C635.775 415.309 639.98 415.03 645.686 412.278C649.691 410.345 654.546 410.175 657.005 409.649C657.329 416.886 655.474 424.06 658.242 427.988C664.875 437.374 675.56 441.286 688.208 442.152C687.466 444.394 687.373 447.254 685.981 448.166C684.342 449.233 681.296 449.342 679.379 448.568C674.74 446.713 670.503 443.837 665.896 441.873C661.118 439.832 655.891 436.631 651.191 437.111C644.449 437.791 636.517 432.147 630.687 439.925C630.363 440.358 627.703 439.971 627.27 439.26C621.054 429.302 610.246 435.255 602.035 432.024C598.293 430.539 593.361 430.709 591.552 436.554C591.227 437.606 588.32 438.843 587.098 438.456C577.682 435.534 569.054 436.879 560.967 442.492C563.611 446.234 566.332 450.068 569.054 453.919V453.949ZM828.84 235.216C829.025 232.309 829.273 230.346 829.242 228.382C828.778 202.204 827.386 176.01 828.113 149.863C828.531 134.957 826.675 123.778 809.543 121.242C809.295 121.211 808.986 121.103 808.847 120.917C807.749 119.464 806.682 117.995 805.615 116.51C807.548 116.108 809.713 114.964 811.383 115.459C816.686 117.036 821.727 119.464 827.015 121.041C829.025 121.644 831.608 120.268 833.68 120.778C841.164 122.664 848.23 127.102 856.471 123.901C857.152 123.639 858.327 124.427 859.208 124.86C865.069 127.736 870.991 130.504 876.743 133.596C879.294 134.973 883.33 136.828 883.531 138.776C884.567 149.245 890.876 156.728 896.906 164.32C903.71 172.887 904.977 182.01 902.519 192.524C900.725 200.178 900.88 208.25 899.751 216.074C899.395 218.532 898.189 221.377 896.427 223.047C886.763 232.263 876.124 240.566 867.172 250.4C861.234 256.91 855.343 257.08 847.921 255.503C833.587 252.472 819.176 249.736 804.78 246.983C772.201 240.736 739.605 234.613 707.057 228.243C704.335 227.717 700.052 226.016 699.728 224.253C698.753 219.027 699.372 213.507 699.372 207.322C743.332 216.785 785.715 225.892 828.871 235.17L828.84 235.216ZM935.779 402.614C949.339 393.877 952.679 386.115 946.355 376.451C943.154 371.55 937.758 368.07 933.413 363.896C931.929 362.473 929.578 360.927 929.439 359.288C928.372 346.005 927.506 332.677 927.197 319.348C927.151 317.353 930.042 313.998 932.13 313.472C943.34 310.643 954.705 308.385 966.055 306.174C982.878 302.896 999.747 299.803 1017.53 296.463C1018.69 338.614 1019.83 379.992 1020.96 420.628C1008.89 420.628 998.108 420.689 987.346 420.55C985.676 420.535 983.62 419.994 982.414 418.942C977.914 414.968 973.94 410.376 969.255 406.665C967.276 405.103 964.029 404.578 961.354 404.547C954.458 404.469 947.546 405.041 940.65 405.072C939.335 405.072 938.036 403.789 935.779 402.614ZM799.94 115.675V224.037C798.394 224.037 797.111 224.253 795.951 224.006C772.293 218.934 748.682 213.708 724.993 208.791C720.339 207.832 720.37 205.002 720.355 201.477C720.185 167.831 719.922 134.169 719.736 100.522C719.736 98.0789 720.03 95.6204 720.2 93.0691C730.745 95.4503 736.013 101.563 736.003 111.408C736.003 128.88 735.956 146.353 736.157 163.81C736.188 166.052 737.162 169.81 738.539 170.243C751.419 174.309 764.469 177.804 777.705 181.53C778.308 179.226 778.788 178.268 778.772 177.309C778.556 156.249 778.463 135.189 777.767 114.129C777.69 111.825 774.613 108.609 772.17 107.573C756.058 100.754 739.791 94.337 723.463 88.0437C721.05 87.116 717.989 86.9459 715.438 87.4407C696.496 91.1363 677.616 95.172 658.706 98.9603C571.667 116.387 484.628 133.766 397.589 151.162C380.658 154.548 363.727 157.842 346.78 161.182C368.288 155.012 390.121 150.574 411.97 146.121C500.972 127.984 589.99 109.985 678.93 91.6156C705.727 86.08 732.323 76.9107 758.702 92.8835C760.866 94.1978 763.433 94.9555 765.907 95.6049C773.561 97.6305 781.246 99.486 789.178 101.481C787.988 110.464 788.715 111.64 799.909 115.644L799.94 115.675ZM219.492 198.616C219.6 198.354 219.708 198.075 219.801 197.812C223.125 198.586 227.115 198.493 229.604 200.379C232.279 202.405 233.547 206.301 236.346 210.878H260.87C267.998 225.506 276.904 232.758 291.068 235.046C292.846 240.798 290.248 247.741 298.861 250.679C302.897 252.055 302.232 256.988 297.81 257.714C292.289 258.627 287.79 260.405 283.971 264.425C283.306 265.136 281.141 265.446 280.399 264.92C272.683 259.431 267.503 266.884 261.473 268.832C256.911 270.316 257.019 274.383 261.565 276.625C267.286 279.455 271.972 285.547 279.718 282.887C280.26 282.702 281.388 284.155 282.239 284.851C282.131 285.624 282.007 286.382 281.899 287.155H243.119C244.51 285.191 245.639 283.614 246.752 282.037C246.381 281.527 245.995 281.001 245.623 280.491C241.294 282.686 236.964 284.897 232.016 287.418C233.609 282.423 233.841 277.058 236.64 274.12C240.072 270.502 245.484 268.476 250.34 266.528C254.53 264.858 259.138 264.255 263.56 263.188C263.344 262.26 263.112 261.333 262.895 260.405C257.39 260.946 251.886 261.503 245.747 262.106C248.283 257.281 250.401 253.261 252.535 249.241C251.809 248.808 251.082 248.375 250.37 247.942C247.525 250.385 244.68 252.844 241.031 255.967C239.995 252.132 239.33 249.674 238.31 245.932C231.893 251.452 226.342 256.245 219.213 262.384C221.363 257.915 223.017 255.519 223.62 252.875C224.038 251.096 222.971 248.978 222.569 246.999C220.853 248.143 218.456 248.916 217.559 250.524C215.456 254.297 214.08 258.472 212.101 263.265C208.977 256.988 206.581 252.163 203.194 245.375C201.694 249.488 201.076 251.205 200.256 253.447C194.149 251.653 188.257 249.937 182.459 248.22C187.175 256.06 191.814 263.791 196.468 271.538C195.911 271.878 195.37 272.203 194.814 272.543C187.84 269.28 180.882 266.002 173.522 262.57C171.063 273.285 183.541 273.888 184.67 280.351C179.629 282.315 175.145 284.542 170.398 285.671C168.419 286.134 165.852 284.356 163.595 283.459C158.631 281.511 153.745 279.315 148.72 277.553C146.895 276.919 144.746 277.197 142.736 277.073C142.318 276.192 141.901 275.326 141.468 274.445C145.89 271.383 150.312 268.306 154.441 265.446C147.297 262.368 142.148 260.173 135.561 257.343C137.772 255.287 139.288 253.648 141.035 252.302C142.365 251.266 144.823 250.895 145.318 249.658C149.014 240.427 158.925 243.953 165.388 240.102C170.414 237.118 178.392 239.128 185.041 238.711C185.892 238.664 186.649 237.335 188.428 235.696C183.727 235.046 180.31 234.582 176.97 234.118C176.552 231.629 176.181 229.418 175.81 227.207C175.083 227.207 174.357 227.207 173.63 227.207C173.151 230.268 172.671 233.33 172.099 237.01C168.048 234.49 164.414 232.325 160.873 230.005C159.312 228.985 156.667 227.578 156.745 226.511C156.899 224.485 158.167 221.671 159.822 220.79C165.497 217.79 172.316 216.491 177.233 212.656C182.243 208.76 186.866 207.94 192.664 208.574C193.824 208.698 195.726 206.224 196.514 204.57C198.262 200.936 199.901 199.266 204.725 200.116C209.41 200.936 214.528 199.25 219.461 198.663L219.492 198.616ZM447.147 418.277C445.508 423.596 445.06 427.076 451.446 426.21C452.497 426.07 453.904 428.653 455.141 429.983C451.739 432.797 448.523 437.698 444.889 438.023C436.37 438.812 427.664 437.389 419.021 436.925C418.031 436.879 416.655 436.771 416.098 437.327C412.418 440.961 409.403 439.044 405.893 436.863C401.981 434.436 398.254 433.771 393.523 436.972C387.57 440.992 380.936 444.177 372.772 441.317C368.504 439.817 363.108 439.786 358.701 440.93C353.49 442.275 340.486 441.177 336.265 438.162C333.281 436.028 329.446 435.147 326.06 433.554C323.601 432.395 319.179 430.895 319.241 429.735C319.519 424.107 315.87 424.849 312.437 423.921C310.025 423.272 308.108 420.844 305.958 419.221C307.35 417.674 308.896 416.221 310.118 414.551C314.958 407.871 322.024 407.778 329.322 407.144C331.951 406.912 335.801 403.603 336.435 401.037C338.09 394.372 349.13 386.888 356.181 389.223C368.845 393.414 379.637 387.909 390.523 383.007C393.987 381.446 399.027 379.93 400.063 377.162C402.785 369.864 408.877 372.06 413.33 371.704C417.954 371.318 422.84 373.436 427.509 374.766C428.437 375.029 429.118 376.606 429.674 377.704C431.932 382.11 434.112 386.579 436.122 390.63C439.972 389.115 442.756 387.028 443.946 387.708C450.208 391.295 457.089 385.698 463.661 390.136C468.887 393.646 476.928 393.29 476.649 402.567C476.603 404.253 478.196 405.969 479.479 408.629C476.572 409.201 473.572 410.824 472.026 409.928C466.135 406.51 461.326 409.154 457.476 412.556C450.765 418.478 443.962 414.273 439.972 411.056C434.978 407.005 430.818 407.995 425.886 408.242C422.747 408.397 419.144 408.938 416.516 407.701C409.372 404.33 403.434 404.407 397.605 410.391C396.229 411.799 391.76 412.371 390.399 411.273C381.601 404.145 373.607 406.588 365.505 412.216C371.906 420.334 372.602 420.349 377.658 412.216C380.256 413.128 383.364 413.469 385.451 415.092C391.899 420.133 397.528 419.221 402.986 413.793C407.254 409.541 411.104 410.546 415.974 413.438C419.067 415.278 424.742 416.406 427.308 414.798C433.586 410.84 435.442 414.443 437.282 418.757C440.513 418.602 443.266 418.478 447.101 418.293L447.147 418.277ZM326.817 400.712C271.894 401.578 218.224 402.428 164.399 403.279C164.399 392.64 164.739 383.193 164.275 373.776C163.966 367.452 166.084 365.457 172.501 365.225C212.889 363.695 253.262 361.623 293.65 359.968C304.629 359.52 315.638 359.906 326.817 359.906V400.727V400.712ZM782.05 322.394C781.834 321.698 781.617 320.987 781.401 320.291C794.729 310.21 808.769 300.917 821.186 289.815C831.438 280.645 840.359 270.1 853.997 265.708C856.688 264.843 860.09 265.105 862.146 263.528C868.78 258.441 875.026 252.844 881.227 247.231C887.799 241.293 894.154 235.108 901.313 228.382C908.364 255.905 906.988 282.841 905.658 310.859C864.759 318.668 822.964 315.931 782.066 322.394H782.05ZM694.501 207.074C694.702 211.574 694.702 215.347 695.073 219.073C695.599 224.346 694.022 226.975 688.131 227.454C677.106 228.351 666.158 230.114 655.165 231.443C601.247 237.969 547.329 244.463 493.411 250.957C482.34 252.287 471.253 253.57 460.027 254.9V238.03C538.175 227.717 615.905 217.45 694.501 207.059V207.074ZM260.004 292.814C260.993 292.814 262.153 292.459 262.911 292.861C270.626 296.958 277.878 293.448 285.161 291.484C289.893 290.201 291.841 283.691 288.068 280.398C285.44 278.109 281.311 277.506 277.801 276.3C274.6 275.202 271.322 274.29 268.091 273.301C268.091 272.064 268.091 270.811 268.091 269.574C283.955 274.754 295.227 265.245 307.891 259.4C307.984 260.76 308.092 262.013 308.139 263.281C308.309 268.662 306.515 275.527 309.175 278.991C311.896 282.532 319.102 282.454 324.111 284.511C325.72 285.176 327.482 287.526 327.591 289.227C327.714 290.928 326.029 294.144 324.854 294.283C320.014 294.871 319.952 297.994 319.952 301.473C319.952 311.4 319.952 321.327 319.952 331.965C281.79 329.924 244.912 327.945 207.168 325.904C208.251 321.111 208.714 317.307 209.967 313.797C212.364 307.133 217.791 303.174 224.471 302.865C231.274 302.54 238.232 303.87 245.036 304.968C257.205 306.932 260.143 304.751 260.004 292.814ZM477.206 349.84C476.526 348.603 476.077 348.17 476.077 347.737C476.062 322.889 476.015 298.041 476.263 273.192C476.263 271.692 478.629 269.095 480.113 268.925C495.065 267.162 510.064 265.801 525.434 264.286V347.196C509.059 348.093 493.21 348.974 477.191 349.856L477.206 349.84ZM159.868 408.938C209.642 408.103 257.267 407.299 304.907 406.495C294.748 413.824 297.98 421.2 304.83 428.993C300.608 428.993 298.057 429.024 295.506 428.993C260.004 428.498 224.502 428.127 189.015 427.354C182.706 427.215 180.201 428.946 180.372 435.379C180.681 446.837 180.464 458.325 180.464 469.598C170.785 470.433 160.023 463.768 159.946 457.66C159.745 441.796 159.884 425.931 159.884 408.953L159.868 408.938ZM760.867 250.973C786.921 255.596 812.326 260.111 838.968 264.842C816.222 283.985 795.132 301.891 773.809 319.534C770.361 322.394 765.876 324.018 760.867 326.77V250.973ZM325.874 352.608C278.528 354.587 231.522 356.551 184.485 358.53V330.357C232.016 332.986 278.822 335.584 325.874 338.197V352.623V352.608ZM715.329 337.687C706.284 337.687 697.81 337.563 689.337 337.748C685.425 337.826 683.77 336.465 683.77 332.445C683.77 305.988 683.538 279.532 683.677 253.091C683.677 251.251 685.858 248.081 687.404 247.834C696.45 246.318 705.588 245.483 715.329 244.355V337.717V337.687ZM192.757 435.07H315.87C315.978 435.967 316.071 436.863 316.179 437.76C275.157 448.831 236.872 470.139 192.757 470.819V435.07ZM839.231 421.571C833.355 424.849 833.51 424.632 827.68 420.535C825.732 419.174 821.356 418.03 820.428 419.004C814.104 425.607 809.929 422.406 805.213 414.427C802.909 420.318 801.286 424.509 799.43 429.225C797.095 427.447 795.178 425.993 793.276 424.555C792.534 426.735 791.823 428.823 791.111 430.895C789.117 429.689 787.06 428.591 785.158 427.261C782.313 425.266 779.592 423.117 777.18 421.308C782.112 420.411 787.137 419.499 792.178 418.571C784.23 417.04 776.7 417.272 769.201 416.901C766.742 416.777 762.722 415.479 762.289 413.917C761.5 411.056 762.552 404.918 763.325 404.84C770.654 404.067 773.53 391.032 783.024 398.315C785.638 388.991 791.111 387.089 799.6 390.708C802.755 392.053 806.976 390.986 810.702 390.847C812.697 390.77 815.434 389.378 816.547 390.228C821.897 394.372 830.262 389.687 834.576 396.63C835.071 397.418 837.53 397.511 838.875 397.155C843.143 396.042 846.591 395.949 849.745 400.078C851.106 401.856 854.616 402.737 857.136 402.722C865.316 402.691 872.614 404.129 877.81 410.964C869.939 423.04 848.926 428.56 839.231 421.54V421.571ZM671.184 394.991C671.477 396.027 671.771 397.063 672.081 398.099C665.648 397.403 658.396 398.315 653.015 395.578C646.83 392.439 642.284 386.053 636.068 380.178C636.068 368.952 633.471 367.004 620.281 366.493C617.018 366.37 612.735 362.164 611.096 358.777C609.519 355.515 610.756 350.892 610.756 346.299C631.816 345.124 652.057 343.98 672.282 342.882C674.524 342.758 676.766 342.867 680.245 342.867C680.245 355.515 680.307 367.498 680.152 379.482C680.137 380.781 678.884 382.064 678.142 383.332C675.838 387.229 673.503 391.11 671.184 394.991ZM476.588 190.452C476.588 173.907 476.495 159.063 476.727 144.204C476.758 142.688 478.49 140.153 479.804 139.874C494.802 136.72 509.894 133.906 525.511 130.89V182.597C509.461 185.179 493.565 187.731 476.588 190.452ZM862.95 345.186C855.497 331.115 842.401 324.466 830.85 325.533C814.893 327.017 803.914 337.748 790.771 344.382C787.787 345.882 786.132 350.01 783.89 352.948C783.164 353.891 782.761 355.438 781.834 355.824C777.195 357.711 772.448 359.303 766.479 361.437C766.479 353.134 766.727 345.248 766.387 337.393C766.17 332.244 767.809 330.249 773.237 329.847C803.528 327.667 833.803 325.131 864.064 322.642C878.104 321.482 892.143 320.137 907.173 318.776C908.085 331.362 908.982 343.671 909.879 355.979C909.276 356.628 908.688 357.262 908.085 357.912C894.448 347.536 879.681 341.599 862.919 345.17L862.95 345.186ZM811.491 253.416C811.414 253.88 811.321 254.343 811.243 254.792C792.101 251.39 772.989 247.756 753.785 244.648C739.899 242.406 725.674 238.216 712.02 239.468C644.882 245.654 577.929 253.617 510.837 260.374C496.766 261.796 482.34 266.605 467.96 259.693C472.799 259.013 477.361 258.271 481.938 257.73C540.185 250.679 598.432 243.721 656.664 236.608C678.126 233.979 699.48 230.779 721.02 236.268C728.967 238.293 737.178 239.345 745.249 240.876C767.33 245.05 789.41 249.241 811.491 253.416ZM715.144 93.0845V160.378C704.521 158.445 694.378 156.589 683.136 154.548C683.136 137.88 683.059 120.515 683.291 103.151C683.306 101.759 685.316 99.5015 686.77 99.1458C695.924 96.9347 705.17 95.1565 715.144 93.0845ZM863.77 433.06C860.43 435.735 857.152 438.487 853.735 441.038C850.658 443.327 847.72 446.296 844.21 447.393C835.968 449.976 827.495 452.078 818.99 453.532C811.8 454.754 806.002 461.418 797.513 458.155C793.848 456.748 789.086 457.104 785.065 457.892C775.741 459.732 766.928 458.928 758.516 454.614C757.604 454.15 756.8 452.001 757.078 450.934C759.289 442.739 772.34 448.259 773.546 438.27C773.592 437.837 776.747 437.683 778.463 437.544C783.117 437.173 787.771 437.018 792.41 436.523C796.6 436.075 800.791 435.487 804.904 434.59C807.239 434.08 809.326 432.379 811.661 431.977C817.707 430.91 822.887 420.257 830.17 430.261C830.804 431.127 833.912 430.338 835.844 430.122C837.483 429.952 839.153 429.039 840.7 429.256C847.596 430.23 854.461 431.498 863.77 433.075V433.06ZM476.649 194.503C492.761 192.014 508.317 189.602 524.846 187.035C524.846 195.215 524.846 202.327 524.846 209.456C524.846 219.094 520.207 224.624 510.93 226.047C505.595 226.851 500.261 227.624 494.926 228.335C488.989 229.124 483.035 229.82 476.649 230.593V194.503ZM525.434 378.786C522.233 378.415 520.455 378.384 518.754 377.967C511.44 376.157 505.101 377.565 498.436 381.477C491.169 385.744 486.855 390.491 488.556 399.258C488.664 399.846 487.056 400.774 486.252 401.547C485.525 400.696 484.69 399.908 484.072 398.965C481.938 395.702 479.85 392.424 477.809 389.1C476.804 387.476 475.227 385.775 475.181 384.074C474.964 375.632 474.949 367.158 475.428 358.731C475.536 356.922 477.948 353.783 479.355 353.752C494.663 353.397 509.971 353.52 525.387 353.52V378.771L525.434 378.786ZM820.32 52.4799C818.449 56.16 815.728 59.469 815.202 63.1027C814.676 66.7827 816.331 70.7721 817.057 74.7923C807.213 73.9264 801.94 70.4577 801.239 64.386C801.007 64.3242 800.714 64.1386 800.528 64.2005C794.606 66.7673 789.163 72.473 782.128 65.6849C780.581 64.2005 776.7 65.422 774.164 64.5871C768.799 62.8243 763.603 60.5359 756.924 57.9072C755.98 56.5465 753.877 53.485 751.202 49.6039C771.412 36.538 791.792 30.7086 812.635 47.903C812.372 48.1349 811.336 49.0627 809.218 50.98C813.826 51.5985 817.181 52.0624 820.289 52.4799H820.32ZM678.126 103.383C678.126 119.587 678.204 134.648 677.987 149.724C677.972 150.945 676.178 152.971 674.91 153.234C665.926 155.105 656.865 156.62 647.031 158.398C647.031 142.472 646.908 127.643 647.232 112.846C647.263 111.408 649.845 109.166 651.593 108.748C659.819 106.784 668.169 105.346 678.126 103.383ZM612.039 293.077C621.858 292.304 631.46 291.546 641.496 290.742V339.078C631.553 339.635 622.183 340.161 612.039 340.733V293.077ZM678.497 287.897V338.011H649.644V290.17C659.432 289.397 668.571 288.686 678.497 287.897ZM389.781 351.495C389.781 328.78 389.719 307.055 389.936 285.33C389.936 283.985 392.116 281.759 393.569 281.496C398.796 280.522 404.13 280.228 409.99 279.609V350.072C403.063 350.567 396.986 351 389.781 351.51V351.495ZM610.911 164.568C610.911 148.889 610.849 134.122 611.019 119.355C611.019 118.242 612.488 116.418 613.57 116.186C622.198 114.253 630.873 112.629 640.645 110.696C640.645 126.499 640.753 141.065 640.491 155.631C640.46 157.239 638.465 159.914 636.981 160.223C628.755 161.924 620.405 163.053 610.911 164.568ZM596.33 119.263V167.877C587.439 169.33 578.934 170.722 569.378 172.284C569.378 156.852 569.27 142.534 569.533 128.231C569.564 126.808 571.574 124.551 573.058 124.18C580.496 122.324 588.042 120.964 596.33 119.263ZM674.725 454.305C668.401 456.98 663.607 459.841 658.427 460.985C653.556 462.067 648.253 461.14 643.181 461.495C636.795 461.928 629.048 460.722 624.394 463.876C615.89 469.659 607.184 466.814 598.633 467.727C597.907 467.804 595.989 464.928 596.175 463.629C596.561 461.016 598 458.542 599.19 455.542C601.417 455.016 604.339 454.336 606.72 453.779C606.72 451.12 605.885 447.965 606.875 447.208C610.199 444.687 614.019 442.554 617.977 441.255C619.415 440.775 621.704 443.249 623.745 444.053C625.6 444.78 627.657 445.538 629.605 445.445C634.893 445.229 640.274 445.105 645.423 443.992C657.02 441.502 664.999 447.904 674.771 454.259L674.725 454.305ZM647.557 207.569C647.557 194.503 647.464 182.303 647.696 170.119C647.712 168.866 649.413 166.779 650.619 166.547C659.602 164.815 668.648 163.455 678.327 161.877V203.534C668.138 204.863 658.334 206.147 647.572 207.554L647.557 207.569ZM1023.7 295.938C1031.74 294.484 1034.26 296.85 1034.37 303.762C1034.99 341.166 1036.04 378.57 1036.9 415.973C1036.95 417.968 1036.66 419.963 1036.47 422.762C1033.22 422.53 1030.38 422.313 1027.24 422.081C1026.05 379.559 1024.87 337.903 1023.7 295.938ZM597.582 294.685C597.582 309.9 597.69 323.94 597.427 337.98C597.396 339.357 595.201 341.8 593.902 341.861C586.557 342.233 579.182 342.047 571.45 342.047C571.45 328.007 571.342 314.245 571.62 300.484C571.651 299.154 573.816 296.896 575.223 296.711C582.305 295.768 589.464 295.366 597.597 294.685H597.582ZM364.577 351.618C364.577 330.265 364.515 309.297 364.716 288.315C364.716 286.861 366.541 284.434 367.87 284.171C372.246 283.274 376.777 283.166 381.508 282.733V351.634H364.577V351.618ZM470.078 273.919V346.036C464.171 346.361 458.512 346.67 452.837 346.995C452.837 327.559 452.775 309.39 452.853 291.222C452.93 275.465 452.992 275.465 470.062 273.919H470.078ZM537.046 177.634V131.138C545.52 129.499 553.699 127.906 562.791 126.143C562.791 141.56 562.9 155.832 562.621 170.103C562.59 171.449 560.441 173.613 558.972 173.923C551.983 175.392 544.886 176.366 537.031 177.634H537.046ZM352.408 286.057C352.408 304.056 352.485 320.956 352.377 337.857C352.269 353.891 352.191 353.891 336.064 353.01C335.368 352.979 334.703 352.453 334.641 352.422V287.495C340.981 286.985 346.316 286.552 352.408 286.057ZM113.883 465.948C82.3544 464.68 47.5019 463.273 11.2577 461.82C15.2779 458.789 17.7675 457.181 19.9322 455.202C22.8546 452.542 25.406 451.553 28.3439 455.248C29.117 456.222 31.0188 456.965 32.2713 456.81C37.8533 456.114 43.4662 454.027 48.909 454.444C53.7952 454.815 54.9084 453.13 56.4701 449.311C59.6245 441.61 74.6696 440.451 80.7463 446.496C83.6997 449.434 88.9724 453.3 91.8794 452.419C99.0695 450.238 103.693 454.568 108.61 457.104C111.548 458.619 112.646 463.706 113.883 465.948ZM563.765 297.747V343.671C555.215 344.119 547.205 344.536 539.087 344.954V299.664C547.607 298.999 555.431 298.396 563.765 297.747ZM640.042 208.853C630.223 209.997 621.147 211.064 610.818 212.27C610.818 199.544 610.694 187.839 610.988 176.149C611.019 174.85 613.277 172.809 614.776 172.5C622.972 170.83 631.244 169.593 640.027 168.109V208.853H640.042ZM715.592 375.09C704.784 376.467 694.903 377.719 684.76 379.018V341.908H715.592V375.09ZM596.716 175.392C596.716 187.978 596.793 199.668 596.592 211.358C596.577 212.424 595.031 214.218 593.979 214.404C586.217 215.764 578.409 216.785 569.502 218.084C569.502 205.776 569.409 194.581 569.626 183.386C569.657 182.041 571.203 179.814 572.378 179.567C580.109 177.989 587.918 176.845 596.701 175.392H596.716ZM444.812 348.557C438.271 349.082 432.566 349.531 426.535 350.01V293.665C430.88 293.046 434.653 292.459 438.441 291.979C443.049 291.376 444.92 293.34 444.874 298.056C444.719 314.446 444.812 330.821 444.812 348.588V348.557ZM728.72 54.3354C745.806 61.2008 762.243 67.7878 778.617 74.3594C767.856 79.6476 774.319 87.5025 779.19 96.0843C762.243 89.8838 747.584 84.642 733.065 79.0136C731.209 78.2869 729.091 75.6273 728.921 73.6945C728.38 67.6332 728.72 61.51 728.72 54.3354ZM409.975 156.419C409.975 172.268 410.052 187.592 409.836 202.93C409.82 204.183 408.104 206.255 406.882 206.502C401.455 207.631 395.919 208.25 389.379 209.193C389.379 198.524 389.379 188.86 389.379 179.211C389.358 166.181 396.224 158.589 409.975 156.435V156.419ZM536.969 222.522V185.071C545.458 183.819 553.885 182.566 562.621 181.267V218.903C554.07 220.109 545.829 221.269 536.969 222.522ZM971.745 426.426C972.008 426.859 972.471 427.277 972.487 427.71C973.013 450.517 973.616 473.324 973.786 496.147C973.786 497.662 970.755 499.997 968.745 500.538C966.472 501.157 963.751 500.182 960.04 499.78C960.04 478.427 960.07 457.444 960.04 436.461C960.024 425.158 960.163 424.973 971.76 426.411L971.745 426.426ZM729.818 279.563C732.508 279.826 734.271 280.15 736.018 280.135C743.394 280.089 746.548 283.088 745.682 290.943C744.94 297.778 745.775 304.782 745.821 311.71C745.883 320.863 745.821 330.002 745.821 339.913C741.368 339.573 737.503 339.604 733.807 338.831C732.276 338.506 729.988 336.465 729.972 335.166C729.725 316.766 729.802 298.35 729.802 279.563H729.818ZM382.142 161.615C382.142 177.479 382.22 192.493 382.003 207.492C381.988 208.76 380.302 210.832 379.065 211.11C373.978 212.27 368.767 212.873 363.077 213.77C363.077 198.029 362.953 183.525 363.247 169.021C363.278 167.428 365.443 164.97 367.066 164.491C371.643 163.145 376.452 162.62 382.127 161.599L382.142 161.615ZM649.799 283.305V253.462C659.386 252.426 668.401 251.467 678.111 250.416V281.264C668.864 281.929 659.695 282.594 649.799 283.305ZM612.936 286.15C612.936 276.826 612.766 268.94 613.091 261.07C613.153 259.601 615.039 257.158 616.338 256.972C624.363 255.828 632.466 255.209 641.217 254.359V284.186C632.002 284.82 622.91 285.454 612.936 286.15ZM804.285 187.004C810.594 188.798 816.068 190.05 821.294 191.983C822.995 192.617 825.129 194.952 825.191 196.575C825.531 207.523 825.376 218.486 825.376 230.392C819.037 229 813.3 227.98 807.733 226.356C806.295 225.939 804.486 223.588 804.44 222.089C804.162 210.662 804.285 199.235 804.285 186.989V187.004ZM422.793 167.552C438.153 168.552 445.822 176.191 445.802 190.468C445.802 192.524 446.126 194.658 445.647 196.591C445.291 198.044 444.085 200.116 442.91 200.395C436.447 201.848 429.891 202.822 422.793 204.075V167.552ZM422.639 208.296C430.355 207.121 437.607 206.008 445.771 204.755C445.771 215.517 445.879 225.181 445.632 234.845C445.601 236.098 443.807 238.139 442.539 238.371C436.122 239.623 429.612 240.412 422.623 241.432V208.281L422.639 208.296ZM597.52 259.09C597.52 268.523 597.644 276.934 597.381 285.33C597.335 286.567 595.526 288.655 594.35 288.794C587.083 289.675 579.754 290.124 571.852 290.773C571.852 281.573 571.59 273.656 572.069 265.786C572.177 264.131 574.821 261.564 576.615 261.255C582.924 260.157 589.371 259.864 597.52 259.09ZM917.007 161.862C917.007 152.677 916.636 144.915 917.301 137.23C917.44 135.529 921.399 132.669 923.316 132.87C932.98 133.906 942.582 135.668 952.154 137.493C953.777 137.802 955.076 139.751 956.53 140.941C955.354 142.333 954.458 144.281 952.958 145.039C943.819 149.647 934.557 154.007 925.295 158.398C923.1 159.434 920.796 160.269 917.007 161.831V161.862ZM531.619 372.941C531.619 366.973 532.021 363.385 531.542 359.906C530.521 352.5 533.474 350.335 540.819 350.211C556.452 349.917 572.053 348.557 587.686 347.66C590.237 347.505 592.851 347.181 595.355 347.536C596.361 347.675 597.799 349.438 597.799 350.474C597.799 351.51 596.407 353.304 595.402 353.458C592.155 353.969 588.768 354.355 585.537 353.953C569.007 351.881 564.771 353.984 556.668 369.509C548.767 366.725 540.34 362.195 531.619 372.957V372.941ZM539.845 265.554C547.885 264.688 555.354 263.884 563.642 262.987V291.546C555.617 292.211 548.04 292.83 539.845 293.51V265.554ZM715.221 206.038C710.953 205.219 707.536 205.064 704.583 203.827C702.434 202.93 699.403 200.627 699.341 198.864C698.877 186.617 699.094 174.34 699.094 161.166C704.938 162.759 710.057 164.135 715.778 165.697C715.778 176.861 715.809 187.855 715.762 198.848C715.762 200.859 715.468 202.853 715.221 206.038ZM389.162 245.916C389.162 235.665 389.008 226.743 389.302 217.821C389.348 216.29 391.08 213.832 392.425 213.522C397.852 212.285 403.434 211.744 409.496 210.863V243.257C402.8 244.138 396.523 244.958 389.147 245.916H389.162ZM381.725 215.378V246.983C375.354 247.772 369.355 248.499 362.505 249.349C362.505 239.546 362.35 230.655 362.675 221.779C362.721 220.403 364.793 218.269 366.278 217.914C371.179 216.739 376.236 216.213 381.725 215.378ZM332.832 388.868C332.832 380.069 332.678 371.256 332.987 362.442C333.033 360.989 334.935 358.468 336.141 358.36C341.321 357.896 346.579 358.159 351.743 358.159C351.743 365.38 351.898 371.72 351.619 378.044C351.557 379.466 350.32 381.492 349.083 382.08C343.95 384.507 338.615 386.502 332.832 388.868ZM470.155 353.814V383.317C463.785 381.894 458.063 380.611 452.342 379.327V354.68C458.512 354.386 464.048 354.108 470.155 353.814ZM868.718 125.432C872.058 121.86 875.135 118.567 878.335 115.15C895.422 121.613 907.915 143.199 902.565 160.811C898.545 154.084 893.442 148.889 892.375 142.967C890.86 134.632 886.33 131.045 879.294 128.788C875.66 127.612 872.011 126.484 868.718 125.448V125.432ZM362.737 381.987V357.927C369.278 357.494 375.277 357.108 381.075 356.721C386.07 377.611 375.416 387.151 362.737 381.987ZM694.408 161.12V201.833C691.146 202.281 687.961 202.714 685.085 203.116C684.42 201.941 683.956 201.508 683.956 201.075C683.817 190.313 683.677 179.567 683.631 168.805C683.585 160.192 684.126 159.805 694.408 161.12ZM471.145 172.206C452.853 169.995 451.585 168.526 453.239 152.043C453.78 146.693 459.733 144.606 471.145 145.889V172.206ZM355.856 166.006C356.645 166.547 357.449 167.104 358.237 167.645C358.237 182.149 358.469 196.668 357.974 211.157C357.913 213.151 354.202 215.022 352.176 216.955C351.434 216.398 350.692 215.842 349.949 215.27C349.949 200.781 349.717 186.293 350.212 171.835C350.274 169.825 353.892 167.939 355.856 166.006ZM331.379 281.233C377.071 274.599 422.608 266.25 468.748 263.837C468.856 264.889 468.965 265.94 469.073 266.992C423.18 271.739 377.272 276.486 331.379 281.233ZM751.264 270.038C744.94 268.956 739.157 268.121 733.467 266.868C732.091 266.559 730.05 264.935 729.972 263.807C729.601 258.333 729.802 252.828 729.802 246.427C737.765 247.896 744.445 249.133 751.264 250.385V270.038ZM733.39 385.651L732.895 389.161C728.519 389.161 724.143 388.991 719.783 389.223C717.061 389.362 714.216 389.687 711.696 390.63C707.861 392.068 704.505 396.12 700.052 391.604C699.573 391.125 697.238 392.022 696.063 392.749C691.378 395.64 686.801 398.717 681.868 401.933C679.92 394.31 682.301 391.141 686.662 388.094C696.558 381.167 707.923 385.358 718.391 382.93C722.937 381.879 728.364 384.631 733.39 385.651ZM746.409 359.566C739.559 366.385 734.936 371.008 730.452 375.477V343.439C742.203 344.274 747.522 349.644 746.409 359.551V359.566ZM338.955 222.537C338.955 229.835 339.002 236.654 338.955 243.458C338.878 254.467 338.275 254.947 325.874 254.112C325.874 247.354 325.797 240.566 325.89 233.763C326.06 223.001 326.106 223.001 338.955 222.537ZM920.842 358.561C919.698 358.607 918.554 358.638 917.409 358.685C916.482 336.496 914.781 314.292 914.843 292.103C914.92 271.028 915.198 250.153 909.941 229.48C907.853 221.285 907.637 212.626 906.586 204.167C909.523 212.038 911.209 220.032 912.353 228.088C914.039 239.963 916.002 251.854 916.667 263.807C918.136 289.892 918.832 316.039 919.899 342.155C920.115 347.629 920.517 353.087 920.842 358.546V358.561ZM444.75 355.298C444.75 362.705 444.92 370.019 444.596 377.333C444.534 378.709 442.508 380.966 441.302 381.028C440.003 381.105 438.302 379.281 437.251 377.92C435.163 375.199 434.019 370.807 431.375 369.648C424.108 366.478 425.515 361.36 426.396 355.298H444.75ZM472.32 196.142C472.32 205.729 472.382 214.914 472.304 224.099C472.243 232.418 471.284 233.098 461.249 231.815C461.249 223.063 461.62 214.156 461.141 205.312C460.708 197.534 463.615 194.426 472.32 196.142ZM305.464 236.67C302.696 232.325 299.526 229.603 299.804 227.299C300.392 222.429 303.654 217.775 298.892 213.182C298.583 212.873 299.681 210.399 300.67 209.595C302.85 207.832 305.386 206.502 308.603 204.477V247.695C305.108 245.638 302.201 243.922 297.5 241.154C300.871 239.267 303.484 237.783 305.479 236.67H305.464ZM807.641 130.38C808.259 129.839 808.878 129.282 809.496 128.741C812.805 131.401 818.325 133.612 818.99 136.813C820.444 143.802 819.439 151.301 819.439 158.599C818.805 159.141 818.171 159.682 817.521 160.223C814.228 157.826 808.63 155.847 808.074 152.94C806.698 145.642 807.625 137.926 807.625 130.365L807.641 130.38ZM751.527 138.745C747.105 135.838 741.616 134.076 741.337 131.695C740.27 122.757 740.904 113.634 740.904 104.573L743.301 103.135C746.038 105.826 750.754 108.238 751.141 111.238C752.223 119.525 751.512 128.045 751.512 138.745H751.527ZM453.502 173.536C458.667 174.557 462.609 175.624 466.645 176.057C472.413 176.691 471.624 180.649 471.624 184.53C471.624 188.473 471.16 191.133 466.104 191.875C461.759 192.509 457.708 195.045 453.502 196.761V173.536ZM445.771 166.856C438.751 165.619 432.643 164.815 426.721 163.346C425.066 162.929 422.762 160.563 422.762 159.094C422.762 157.099 424.293 153.775 425.855 153.327C432.148 151.502 438.704 150.543 445.771 149.152V166.856ZM770.33 142.951C769.618 143.477 768.907 144.003 768.196 144.528C765.397 142.008 760.542 139.75 760.171 136.905C759.073 128.695 759.784 120.252 759.784 109.351C764.284 112.969 769.526 115.103 769.928 117.917C771.103 126.113 770.345 134.586 770.345 142.951H770.33ZM973.708 193.452C978.857 185.628 991.722 185.891 999.933 192.741C1014.02 187.236 1022.17 191.488 1021.91 205.08C1006.71 197.952 991.97 189.756 973.708 193.467V193.452ZM1036.56 104.542C1038.25 116.402 1035.2 118.876 1017.58 121.288C1018.1 115.907 1016.83 107.913 1019.52 106.228C1023.92 103.491 1030.89 104.882 1036.56 104.542ZM444.286 289.876C439.771 290.294 435.968 290.835 432.133 290.959C428.963 291.052 424.479 293.402 424.201 287.124C423.969 282.114 424.123 277.847 431.066 278.017C435.303 278.125 439.57 277.352 444.286 276.919V289.876ZM389.085 357.123C409.697 354.092 412.635 354.927 411.707 362.705C407.717 364.004 403.651 364.762 400.187 366.617C396.662 368.519 393.739 371.503 389.07 375.183V357.123H389.085ZM721.854 245.329L723.633 245.236V336.759C723.045 336.759 722.442 336.759 721.854 336.759V245.329ZM925.759 215.362C938.933 203.796 955.37 197.89 966.92 210.012C952.803 211.852 939.057 213.631 925.759 215.362ZM751.573 166.439C750.955 167.073 750.352 167.707 749.733 168.341C746.981 166.3 742.311 164.599 741.863 162.14C740.734 155.832 741.492 149.198 741.492 142.673C749.811 142.951 752.563 146.43 751.682 153.466C751.141 157.718 751.589 162.109 751.589 166.439H751.573ZM357.727 219.63C357.727 228.598 357.541 236.747 357.789 244.88C357.959 250.617 355.392 252.055 349.888 250.818V221.068C352.331 220.62 354.696 220.202 357.727 219.645V219.63ZM770.051 172.206C759.923 170.985 757.465 163.578 761.64 148.564C767.624 148.209 770.639 150.497 770.129 156.976C769.727 162.001 770.051 167.073 770.051 172.206ZM992.202 195.694C987.176 199.312 982.847 202.637 978.285 205.59C976.801 206.549 974.312 207.399 972.951 206.812C968.405 204.817 964.168 202.142 959.808 199.73C959.962 199.08 960.132 198.446 960.287 197.797C970.832 197.101 981.378 196.405 992.217 195.694H992.202ZM808.398 163.192C820.506 165.573 821.804 168.356 818.248 183.185C807.285 181.778 807.069 181.36 808.398 163.192ZM965.962 141.173C965.39 140.462 964.818 139.751 964.245 139.024C965.714 137.508 966.936 135.174 968.729 134.617C973.832 133.024 979.167 132.174 984.393 130.983C991.057 129.468 997.706 127.906 1004.37 126.375C1004.54 127.04 1004.7 127.69 1004.87 128.355C991.892 132.622 978.935 136.89 965.962 141.158V141.173ZM1012.07 204.508C1001.37 205.791 992.542 206.858 982.352 208.08C991.939 198.895 999.083 197.998 1012.07 204.508ZM228.939 296.726C237.305 293.062 245.886 288.284 253.277 299.479C244.464 298.489 236.702 297.608 228.939 296.726ZM530.691 220.094C530.413 220.094 530.134 220.109 529.856 220.125V189.138C530.134 189.138 530.413 189.122 530.691 189.107V220.094ZM455.079 235.943C454.693 235.928 454.306 235.897 453.935 235.881V205.064C454.322 205.08 454.708 205.095 455.079 205.111V235.943ZM201.633 319.549C203.148 308.354 204.663 297.175 206.132 286.351C214.683 298.118 204.168 308.354 201.633 319.549ZM723.911 375.137C723.509 375.121 723.122 375.09 722.72 375.075V343.191L723.911 343.253V375.137ZM1042.33 113.727C1042.1 108.578 1041.88 103.862 1041.65 98.7748C1044.47 98.3727 1046.58 98.0635 1049.75 97.5996C1047.28 103.553 1053.42 111.671 1042.33 113.727ZM503.384 75.9675C512.584 76.2613 517.393 81.1475 518.769 90.2704C513.296 85.1832 508.348 80.5753 503.384 75.9675ZM203.643 258.008C204.524 263.312 205.39 268.492 206.24 273.687C196.731 263.992 196.298 259.987 203.643 258.008ZM729.447 273.764C729.632 272.682 729.818 271.615 730.003 270.533C737.317 271.94 744.631 273.331 751.929 274.739C751.744 275.759 751.543 276.764 751.357 277.785C744.059 276.439 736.745 275.11 729.447 273.764ZM201.602 299.803C200.581 300.793 199.561 301.798 198.525 302.788C194.736 298.752 190.948 294.701 187.144 290.665C187.917 289.938 188.706 289.196 189.479 288.469C193.515 292.242 197.55 296.03 201.586 299.803H201.602ZM308.17 177.263V191.179C307.737 186.803 297.732 182.845 308.17 177.263Z" fill="url(#paint0_linear_881_504)" fill-opacity="0.4"/>
<path d="M0.0703442 550.621C35.1239 554.425 70.1776 558.213 105.231 562.063C159.211 567.985 213.191 573.938 267.155 579.907C300.399 583.587 333.659 587.298 366.888 591.04C367.832 591.148 368.713 591.829 369.61 592.246H417.544C402.05 590.19 386.588 587.886 371.079 586.138C294.168 577.448 217.257 568.867 140.331 560.316C96.8814 555.476 53.4162 550.76 9.96641 545.951C6.65743 545.58 3.36385 544.962 0.0548665 544.467V550.636L0.0703442 550.621Z" fill="url(#paint1_linear_881_504)" fill-opacity="0.4"/>
<path d="M1000.5 592.247C1009.8 559.481 1018.84 526.639 1028.48 493.967C1034.34 474.097 1040.75 454.321 1054.62 438.085C1054.62 435.518 1054.62 432.951 1054.62 430.385C1052.47 432.055 1049.58 433.276 1048.32 435.441C1042.27 445.801 1034.77 455.821 1031.24 467.046C1018.19 508.548 1006.52 550.482 994.32 592.247H1000.5Z" fill="url(#paint2_linear_881_504)" fill-opacity="0.4"/>
<path d="M0.0708785 566.038C23.2956 568.79 46.5203 571.527 69.7296 574.326C106.237 578.717 142.744 583.109 179.235 587.608C190.152 588.953 201.022 590.701 211.908 592.247H232.009C216.284 590.206 200.574 588.072 184.833 586.124C141.027 580.712 97.2221 575.377 53.4167 570.027C38.3871 568.187 23.3575 566.425 8.32792 564.538C5.54466 564.198 2.82321 563.487 0.0708785 562.945V566.038Z" fill="url(#paint3_linear_881_504)" fill-opacity="0.4"/>
<path d="M0.0671861 308.587C6.71608 305.494 13.0711 302.556 18.5758 311.014C19.7664 312.839 24.3434 313.875 26.7865 313.195C32.6468 311.587 38.1669 308.741 43.8262 306.407C43.5324 305.649 43.2386 304.907 42.9448 304.149C39.4348 305.2 35.8475 306.066 32.4303 307.35C23.2301 310.782 20.9416 309.87 16.7667 300.778C16.3492 299.866 15.8236 299.015 15.0814 297.639C9.96325 299.804 5.01518 301.892 0.0517084 303.979V308.602L0.0671861 308.587Z" fill="url(#paint4_linear_881_504)" fill-opacity="0.4"/>
<path d="M637.774 12.8651C641.021 17.9059 655.726 23.3797 662.808 21.6788C674.096 18.9728 683.265 24.1992 686.126 34.0798C690.038 36.4455 693.238 38.3783 695.465 39.7236C699.965 40.3421 703.737 41.0379 707.557 41.3162C709.149 41.4245 711.19 41.0843 712.288 40.1256C713 39.4916 712.922 36.9403 712.211 35.9817C711.067 34.4663 708.948 32.4407 707.495 32.6108C696.609 33.9406 692.079 25.0496 684.951 19.9625C679.848 16.3133 672.874 14.8907 666.504 13.53C660.922 12.324 655.015 12.6177 649.263 12.1539C648.01 12.0456 646.325 11.9838 645.629 11.1952C641.903 6.98937 638.269 2.8918 631.929 6.32448C627.523 8.70572 623.224 11.288 618.833 13.7156C617.348 14.5351 615.833 15.602 614.225 15.834C607.174 16.8545 600.943 18.7255 600.216 27.5391C589.191 27.4773 582.171 21.8334 577.146 13.561C572.445 5.81422 551.926 -1.68512 544.303 2.24237C543.298 2.7681 542.711 4.11334 541.968 5.10294C539.432 8.5047 537.453 7.94805 534.608 4.9947C532.691 3.00004 529.413 2.31968 525.037 0.23224C528.377 6.74197 530.433 11.2416 533.016 15.401C533.65 16.4215 536.495 17.1637 537.561 16.6071C540.886 14.8753 545.385 13.128 546.7 10.1901C551.385 -0.324412 557.987 7.46871 561.621 9.37061C567.404 12.3858 571.595 18.4162 576.434 23.2096C580.284 27.0134 583.64 31.5439 588.062 34.4818C592.825 37.6361 604.468 32.75 607.932 27.6473C609.246 25.7145 611.612 24.1373 613.854 23.256C618.183 21.5242 622.899 21.5706 625.992 16.4679C627.43 14.1021 632.996 14.2104 637.774 12.8961V12.8651Z" fill="url(#paint5_linear_881_504)" fill-opacity="0.4"/>
<defs>
<linearGradient id="paint0_linear_881_504" x1="34" y1="38.716" x2="3194.5" y2="38.716" gradientUnits="userSpaceOnUse">
<stop stop-color="#4BAFC9"/>
<stop offset="1" stop-color="white"/>
</linearGradient>
<linearGradient id="paint1_linear_881_504" x1="34" y1="38.716" x2="3194.5" y2="38.716" gradientUnits="userSpaceOnUse">
<stop stop-color="#4BAFC9"/>
<stop offset="1" stop-color="white"/>
</linearGradient>
<linearGradient id="paint2_linear_881_504" x1="34" y1="38.716" x2="3194.5" y2="38.716" gradientUnits="userSpaceOnUse">
<stop stop-color="#4BAFC9"/>
<stop offset="1" stop-color="white"/>
</linearGradient>
<linearGradient id="paint3_linear_881_504" x1="34" y1="38.716" x2="3194.5" y2="38.716" gradientUnits="userSpaceOnUse">
<stop stop-color="#4BAFC9"/>
<stop offset="1" stop-color="white"/>
</linearGradient>
<linearGradient id="paint4_linear_881_504" x1="34" y1="38.716" x2="3194.5" y2="38.716" gradientUnits="userSpaceOnUse">
<stop stop-color="#4BAFC9"/>
<stop offset="1" stop-color="white"/>
</linearGradient>
<linearGradient id="paint5_linear_881_504" x1="34" y1="38.716" x2="3194.5" y2="38.716" gradientUnits="userSpaceOnUse">
<stop stop-color="#4BAFC9"/>
<stop offset="1" stop-color="white"/>
</linearGradient>
</defs>
</svg>
