<svg width="960" height="624" viewBox="0 0 960 624" fill="none" xmlns="http://www.w3.org/2000/svg">
<path d="M0 0L0 383.386C98.5253 429.973 201.103 471.061 307.793 506.57C521.968 577.862 739.643 613.763 960 624V434.722C912.684 420.874 864.459 406.284 814.76 391.249L805.57 388.469C500.935 296.311 235.962 172.827 0 0Z" fill="#4BAFC9"/>
<path d="M0 0L0 383.386C98.5253 429.973 201.103 471.061 307.793 506.57C521.968 577.862 739.643 613.763 960 624V434.722C912.684 420.874 864.459 406.284 814.76 391.249L805.57 388.469C500.935 296.311 235.962 172.827 0 0Z" fill="url(#paint0_linear_744_1616)" fill-opacity="0.8"/>
<path d="M0 0L0 383.386C98.5253 429.973 201.103 471.061 307.793 506.57C521.968 577.862 739.643 613.763 960 624V434.722C912.684 420.874 864.459 406.284 814.76 391.249L805.57 388.469C500.935 296.311 235.962 172.827 0 0Z" fill="url(#paint1_linear_744_1616)" fill-opacity="0.8"/>
<defs>
<linearGradient id="paint0_linear_744_1616" x1="462.775" y1="998.148" x2="-579.055" y2="-769.753" gradientUnits="userSpaceOnUse">
<stop stop-color="#B5DBE9"/>
<stop offset="0.3" stop-color="#4BAFC9"/>
</linearGradient>
<linearGradient id="paint1_linear_744_1616" x1="420.438" y1="515.001" x2="420.438" y2="-792.181" gradientUnits="userSpaceOnUse">
<stop stop-color="#93CADF"/>
<stop offset="1" stop-color="white"/>
</linearGradient>
</defs>
</svg>
